<svg width="96" height="96" xmlns="http://www.w3.org/2000/svg" xmlns:xlink="http://www.w3.org/1999/xlink" xml:space="preserve" overflow="hidden"><defs><clipPath id="clip0"><rect x="592" y="312" width="96" height="96"/></clipPath></defs><g clip-path="url(#clip0)" transform="translate(-592 -312)"><path d="M640 333.006C637.791 333.006 636 334.797 636 337.006 636 339.215 637.791 341.006 640 341.006 642.209 341.006 644 339.215 644 337.006 643.993 334.8 642.206 333.013 640 333.006ZM640 339.006C638.895 339.006 638 338.111 638 337.006 638 335.901 638.895 335.006 640 335.006 641.105 335.006 642 335.901 642 337.006 642.001 338.111 641.107 339.007 640.002 339.008 640.001 339.008 640.001 339.008 640 339.008Z" stroke="#5BB381"/><path d="M671 387.021 671 384 667 384 667 353 671 353 671 348 676 348 676 346 640 324 604 346 604 348 609 348 609 353 613 353 613 384 609 384 609 387.021 602 392.021 602 396 678 396 678 392.022ZM665 384 663 384 663 353 665 353ZM619 353 625 353 625 384 619 384ZM627 353 629 353 629 384 627 384ZM631 353 637 353 637 384 631 384ZM639 353 641 353 641 384 639 384ZM643 353 649 353 649 384 643 384ZM651 353 653 353 653 384 651 384ZM655 353 661 353 661 384 655 384ZM607.866 345.981 640 326.347 672.134 345.981C672.139 345.983 672.142 345.988 672.14 345.994 672.139 345.997 672.137 345.999 672.134 346L607.872 346C607.866 345.999 607.862 345.994 607.862 345.988 607.863 345.985 607.864 345.983 607.866 345.981ZM611 348 669 348 669 351 611 351ZM615 353 617 353 617 384 615 384ZM611 388.05 611 386 669 386 669 388.05 669.837 388.65 670.329 389.002 609.671 389.002 610.164 388.65ZM676 394 604 394 604 393.052 606.871 391 673.134 391 676 393.052Z" stroke="#5BB381"/></g></svg>