<svg width="38" height="39" xmlns="http://www.w3.org/2000/svg" xmlns:xlink="http://www.w3.org/1999/xlink" xml:space="preserve" overflow="hidden"><defs><clipPath id="clip0"><rect x="889" y="465" width="38" height="39"/></clipPath></defs><g clip-path="url(#clip0)" transform="translate(-889 -465)"><path d="M19 34.0417C10.6927 34.0417 3.95833 27.3073 3.95833 19 3.95833 10.6927 10.6927 3.95833 19 3.95833 27.3073 3.95833 34.0417 10.6927 34.0417 19 34.0323 27.3034 27.3034 34.0323 19 34.0417ZM19 4.75C11.1299 4.75 4.75 11.1299 4.75 19 4.75 26.87 11.1299 33.25 19 33.25 26.87 33.25 33.25 26.87 33.25 19 33.2413 11.1336 26.8664 4.75871 19 4.75Z" stroke="#5BB381" stroke-width="0.395833" transform="matrix(1 0 0 1.02632 889 465)"/><path d="M24.2618 24.8215 18.7201 19.2799C18.6459 19.2056 18.6042 19.105 18.6042 19L18.6042 11.4792 19.3958 11.4792 19.3958 18.8361 24.8215 24.2618Z" stroke="#5BB381" stroke-width="0.395833" transform="matrix(1 0 0 1.02632 889 465)"/><path d="M19.7917 9.10417C19.7917 9.54139 19.4372 9.89583 19 9.89583 18.5628 9.89583 18.2083 9.54139 18.2083 9.10417 18.2083 8.66694 18.5628 8.3125 19 8.3125 19.4372 8.3125 19.7917 8.66694 19.7917 9.10417Z" stroke="#5BB381" stroke-width="0.395833" transform="matrix(1 0 0 1.02632 889 465)"/><path d="M9.89583 19C9.89583 19.4372 9.54139 19.7917 9.10417 19.7917 8.66694 19.7917 8.3125 19.4372 8.3125 19 8.3125 18.5628 8.66694 18.2083 9.10417 18.2083 9.54139 18.2083 9.89583 18.5628 9.89583 19Z" stroke="#5BB381" stroke-width="0.395833" transform="matrix(1 0 0 1.02632 889 465)"/><path d="M19.7917 28.8958C19.7917 29.3331 19.4372 29.6875 19 29.6875 18.5628 29.6875 18.2083 29.3331 18.2083 28.8958 18.2083 28.4586 18.5628 28.1042 19 28.1042 19.4372 28.1042 19.7917 28.4586 19.7917 28.8958Z" stroke="#5BB381" stroke-width="0.395833" transform="matrix(1 0 0 1.02632 889 465)"/><path d="M29.6875 19C29.6875 19.4372 29.3331 19.7917 28.8958 19.7917 28.4586 19.7917 28.1042 19.4372 28.1042 19 28.1042 18.5628 28.4586 18.2083 28.8958 18.2083 29.3331 18.2083 29.6875 18.5628 29.6875 19Z" stroke="#5BB381" stroke-width="0.395833" transform="matrix(1 0 0 1.02632 889 465)"/><path d="M19 32.0625C11.7858 32.0625 5.9375 26.2142 5.9375 19 5.9375 11.7858 11.7858 5.9375 19 5.9375 26.2142 5.9375 32.0625 11.7858 32.0625 19 32.0542 26.2108 26.2108 32.0542 19 32.0625ZM19 6.72917C12.223 6.72917 6.72917 12.223 6.72917 19 6.72917 25.777 12.223 31.2708 19 31.2708 25.777 31.2708 31.2708 25.777 31.2708 19 31.263 12.2263 25.7737 6.737 19 6.72917Z" stroke="#5BB381" stroke-width="0.395833" transform="matrix(1 0 0 1.02632 889 465)"/></g></svg>