<svg width="39" height="38" xmlns="http://www.w3.org/2000/svg" xmlns:xlink="http://www.w3.org/1999/xlink" xml:space="preserve" overflow="hidden"><defs><clipPath id="clip0"><rect x="770" y="475" width="39" height="38"/></clipPath></defs><g clip-path="url(#clip0)" transform="translate(-770 -475)"><path d="M2.59944 20.5667 5.168 23.1349 7.125 21.2816 7.125 34.0322 17.0208 34.0361 17.0208 24.1526 20.9792 24.1526 20.9792 34.0377 30.875 34.0417 30.875 21.265 32.8419 23.1254 35.4006 20.5671 19 4.9875ZM30.0833 33.25 21.7708 33.2464 21.7708 23.3609 16.2292 23.3609 16.2292 33.2441 7.91667 33.2409 7.91667 20.5319 19 10.036 30.0833 20.5164ZM5.18304 22.0305 3.7339 20.5833 19 6.07842 34.2661 20.5833 32.8265 22.021 19 8.94583Z" stroke="#5BB381" stroke-width="0.395833" transform="matrix(1.02632 0 0 1 770 475)"/></g></svg>