<svg width="41" height="41" xmlns="http://www.w3.org/2000/svg" xmlns:xlink="http://www.w3.org/1999/xlink" xml:space="preserve" overflow="hidden"><defs><clipPath id="clip0"><rect x="575" y="475" width="41" height="41"/></clipPath></defs><g clip-path="url(#clip0)" transform="translate(-575 -475)"><path d="M609.332 488.109 608.979 488.887 611.729 490.262 611.729 507.998 604.469 504.368 604.469 497.208 603.615 497.208 603.615 504.368 595.927 508.212 595.927 490.476 599.079 488.9 598.726 488.121 595.5 489.734 586.958 485.464 578.417 489.734 578.417 509.38 586.958 505.109 595.5 509.38 604.042 505.109 612.583 509.38 612.583 489.734ZM586.531 504.368 579.271 507.998 579.271 490.262 586.531 486.632ZM595.073 508.212 587.385 504.368 587.385 486.632 595.073 490.476Z" stroke="#5BB381" stroke-width="0.427083"/><path d="M604.026 482.48C605.203 482.478 606.304 483.065 606.959 484.043 607.615 485.011 607.756 486.239 607.338 487.331L605.358 491.709 604.026 494.505 602.702 491.726 600.714 487.333C600.296 486.237 600.439 485.007 601.098 484.037 601.754 483.062 602.853 482.478 604.028 482.48M604.028 481.625C602.569 481.624 601.204 482.349 600.39 483.56 599.571 484.768 599.398 486.301 599.927 487.66L601.925 492.077 603.65 495.695C603.759 495.904 604.017 495.984 604.226 495.875 604.303 495.835 604.366 495.772 604.406 495.695L606.131 492.077 608.129 487.66C608.658 486.301 608.485 484.768 607.667 483.56 606.852 482.35 605.488 481.624 604.028 481.625Z" stroke="#5BB381" stroke-width="0.427083"/><path d="M604.026 485.004C604.6 485.004 605.065 485.469 605.065 486.042 605.065 486.616 604.6 487.081 604.026 487.081 603.452 487.081 602.987 486.616 602.987 486.042 602.981 485.475 603.436 485.01 604.004 485.004 604.011 485.003 604.018 485.003 604.026 485.004M604.026 484.149C602.98 484.151 602.134 484.999 602.135 486.044 602.136 487.09 602.985 487.936 604.03 487.935 605.075 487.934 605.921 487.087 605.921 486.042 605.925 485.001 605.085 484.154 604.044 484.149 604.039 484.149 604.033 484.149 604.028 484.149Z" stroke="#5BB381" stroke-width="0.427083"/></g></svg>