<svg width="39" height="38" xmlns="http://www.w3.org/2000/svg" xmlns:xlink="http://www.w3.org/1999/xlink" xml:space="preserve" overflow="hidden"><defs><clipPath id="clip0"><rect x="663" y="475" width="39" height="38"/></clipPath></defs><g clip-path="url(#clip0)" transform="translate(-663 -475)"><path d="M7.91667 15.8595C7.91667 15.6408 7.73945 15.4636 7.52083 15.4636L7.52083 15.4636C7.30222 15.4636 7.125 15.6408 7.125 15.8595L7.125 18.7938 8.38573 23.3854 3.48967 23.3854 4.75 18.848 4.75 15.8595C4.75 15.6408 4.57279 15.4636 4.35417 15.4636L4.35417 15.4636C4.13555 15.4636 3.95833 15.6408 3.95833 15.8595L3.95833 18.7395 2.44823 24.1787 3.95833 24.1787 3.95833 30.1162 7.91667 30.1162 7.91667 24.1787 9.42717 24.1787 7.91667 18.7399ZM4.75 24.1787 5.54167 24.1787 5.54167 29.3245 4.75 29.3245ZM7.125 29.3245 6.33333 29.3245 6.33333 24.1787 7.125 24.1787Z" stroke="#5BB381" stroke-width="0.395833" transform="matrix(1.02632 0 0 1 663 475)"/><path d="M16.2292 15.464C16.0105 15.464 15.8333 15.6412 15.8333 15.8599L15.8333 29.3265 15.0417 29.3265 15.0417 21.4015 14.25 21.4015 14.25 29.3265 13.4583 29.3265 13.4583 15.8599C13.4583 15.6412 13.2811 15.464 13.0625 15.464 12.8439 15.464 12.6667 15.6412 12.6667 15.8599L12.6667 30.1182 16.625 30.1182 16.625 15.8599C16.625 15.6412 16.4478 15.464 16.2292 15.464Z" stroke="#5BB381" stroke-width="0.395833" transform="matrix(1.02632 0 0 1 663 475)"/><path d="M14.6458 11.9015C15.7389 11.9015 16.625 11.0154 16.625 9.92235 16.625 8.8293 15.7389 7.94319 14.6458 7.94319 13.5528 7.94319 12.6667 8.8293 12.6667 9.92235 12.668 11.0149 13.5533 11.9002 14.6458 11.9015ZM14.6458 8.73485C15.3017 8.73485 15.8333 9.2665 15.8333 9.92235 15.8333 10.5782 15.3017 11.1099 14.6458 11.1099 13.99 11.1099 13.4583 10.5782 13.4583 9.92235 13.4583 9.2665 13.99 8.73485 14.6458 8.73485Z" stroke="#5BB381" stroke-width="0.395833" transform="matrix(1.02632 0 0 1 663 475)"/><path d="M5.9375 11.9015C7.03055 11.9015 7.91667 11.0154 7.91667 9.92235 7.91667 8.8293 7.03055 7.94319 5.9375 7.94319 4.84445 7.94319 3.95833 8.8293 3.95833 9.92235 3.95964 11.0149 4.84496 11.9002 5.9375 11.9015ZM5.9375 8.73485C6.59336 8.73485 7.125 9.2665 7.125 9.92235 7.125 10.5782 6.59336 11.1099 5.9375 11.1099 5.28164 11.1099 4.75 10.5782 4.75 9.92235 4.75 9.2665 5.28164 8.73485 5.9375 8.73485Z" stroke="#5BB381" stroke-width="0.395833" transform="matrix(1.02632 0 0 1 663 475)"/><path d="M25.3333 15.8595C25.3333 15.6408 25.1561 15.4636 24.9375 15.4636L24.9375 15.4636C24.7189 15.4636 24.5417 15.6408 24.5417 15.8595L24.5417 18.7938 25.8024 23.3854 20.9063 23.3854 22.1667 18.848 22.1667 15.8595C22.1667 15.6408 21.9895 15.4636 21.7708 15.4636L21.7708 15.4636C21.5522 15.4636 21.375 15.6408 21.375 15.8595L21.375 18.7395 19.8645 24.1783 21.375 24.1783 21.375 30.1158 25.3333 30.1158 25.3333 24.1783 26.8438 24.1783 25.3333 18.7399ZM22.1667 24.1787 22.9583 24.1787 22.9583 29.3245 22.1667 29.3245ZM24.5417 29.3245 23.75 29.3245 23.75 24.1787 24.5417 24.1787Z" stroke="#5BB381" stroke-width="0.395833" transform="matrix(1.02632 0 0 1 663 475)"/><path d="M33.6458 15.464C33.4272 15.464 33.25 15.6412 33.25 15.8599L33.25 29.3265 32.4583 29.3265 32.4583 21.4015 31.6667 21.4015 31.6667 29.3265 30.875 29.3265 30.875 15.8599C30.875 15.6412 30.6978 15.464 30.4792 15.464 30.2605 15.464 30.0833 15.6412 30.0833 15.8599L30.0833 30.1182 34.0417 30.1182 34.0417 15.8599C34.0417 15.6412 33.8645 15.464 33.6458 15.464Z" stroke="#5BB381" stroke-width="0.395833" transform="matrix(1.02632 0 0 1 663 475)"/><path d="M32.0625 11.9015C33.1556 11.9015 34.0417 11.0154 34.0417 9.92235 34.0417 8.8293 33.1556 7.94319 32.0625 7.94319 30.9694 7.94319 30.0833 8.8293 30.0833 9.92235 30.0846 11.0149 30.97 11.9002 32.0625 11.9015ZM32.0625 8.73485C32.7184 8.73485 33.25 9.2665 33.25 9.92235 33.25 10.5782 32.7184 11.1099 32.0625 11.1099 31.4066 11.1099 30.875 10.5782 30.875 9.92235 30.875 9.2665 31.4066 8.73485 32.0625 8.73485Z" stroke="#5BB381" stroke-width="0.395833" transform="matrix(1.02632 0 0 1 663 475)"/><path d="M23.3542 11.9015C24.4472 11.9015 25.3333 11.0154 25.3333 9.92235 25.3333 8.8293 24.4472 7.94319 23.3542 7.94319 22.2611 7.94319 21.375 8.8293 21.375 9.92235 21.3763 11.0149 22.2616 11.9002 23.3542 11.9015ZM23.3542 8.73485C24.01 8.73485 24.5417 9.2665 24.5417 9.92235 24.5417 10.5782 24.01 11.1099 23.3542 11.1099 22.6983 11.1099 22.1667 10.5782 22.1667 9.92235 22.1667 9.2665 22.6983 8.73485 23.3542 8.73485Z" stroke="#5BB381" stroke-width="0.395833" transform="matrix(1.02632 0 0 1 663 475)"/><path d="M36.6284 20.043 35.625 14.3509C35.5619 14.0996 35.4177 13.8761 35.2145 13.7152 34.7094 13.3365 34.1367 13.0576 33.5271 12.8935 33.0525 12.7673 32.5642 12.7 32.0732 12.6932 31.5924 12.6972 31.1143 12.7651 30.6514 12.8951 30.0436 13.0593 29.4726 13.3378 28.9691 13.7156 28.7565 13.8784 28.6092 14.1119 28.5538 14.3739L27.7115 18.8436C27.7115 18.8458 27.7097 18.8476 27.7075 18.8476 27.7054 18.8476 27.7036 18.8458 27.7036 18.8436L26.8585 14.3509C26.8007 14.0973 26.6554 13.8722 26.448 13.7152 25.9451 13.338 25.375 13.0598 24.7681 12.8955 24.3041 12.7652 23.8249 12.6972 23.3431 12.6932 22.85 12.7002 22.3597 12.768 21.8833 12.8951 21.283 13.0568 20.7189 13.3308 20.2208 13.7026 20.0019 13.8712 19.8481 14.1104 19.7853 14.3794L18.9794 19.0435C18.9794 19.0457 18.9776 19.0475 18.9755 19.0475 18.9733 19.0475 18.9715 19.0457 18.9715 19.0435L18.2083 14.3509C18.1453 14.0996 18.001 13.8761 17.7979 13.7152 17.2927 13.3365 16.72 13.0576 16.1104 12.8935 15.6359 12.7673 15.1476 12.7 14.6565 12.6932 14.1757 12.6972 13.6976 12.7651 13.2347 12.8951 12.6269 13.0593 12.056 13.3378 11.5524 13.7156 11.3398 13.8784 11.1925 14.1119 11.1372 14.3739L10.2948 18.8436C10.2948 18.8458 10.2931 18.8476 10.2909 18.8476 10.2887 18.8476 10.2869 18.8458 10.2869 18.8436L9.44181 14.3509C9.38406 14.0973 9.23871 13.8722 9.03133 13.7152 8.52839 13.338 7.95831 13.0598 7.35142 12.8955 6.88746 12.7652 6.40827 12.6972 5.92642 12.6932 5.43337 12.7002 4.94305 12.768 4.46658 12.8951 3.86638 13.0568 3.30226 13.3308 2.80408 13.7026 2.58552 13.871 2.43173 14.1096 2.36867 14.3783L1.36998 20.0462C1.26696 20.6276 1.54953 21.2093 2.07021 21.4878 2.26099 21.5946 2.50218 21.5264 2.60892 21.3357 2.71566 21.1449 2.64753 20.9037 2.45674 20.7969 2.44687 20.7914 2.43677 20.7863 2.42646 20.7816 2.21607 20.6601 2.10507 20.4193 2.14937 20.1804L3.14331 14.5429C3.16495 14.4687 3.20594 14.4017 3.26206 14.3486 3.68273 14.0328 4.15942 13.7997 4.66687 13.6614 5.07874 13.5513 5.50252 13.492 5.92879 13.4849 6.34062 13.489 6.75007 13.5478 7.14638 13.6598 7.65605 13.7979 8.13481 14.0316 8.55713 14.3486 8.61345 14.3909 8.65335 14.4515 8.66994 14.52L9.90296 21.0785C9.9431 21.2934 10.1498 21.4351 10.3647 21.395 10.5254 21.3649 10.6512 21.2392 10.6812 21.0785L11.9082 14.5425C11.9229 14.4655 11.9651 14.3963 12.027 14.3482 12.4501 14.0309 12.9296 13.797 13.4401 13.659 13.8358 13.5472 14.2446 13.4885 14.6557 13.4845 15.0799 13.4914 15.5017 13.5502 15.9117 13.6594 16.4267 13.7996 16.9104 14.0365 17.3367 14.3577 17.3783 14.402 17.4113 14.4537 17.4341 14.5101L18.5745 21.5207C18.6056 21.7114 18.7699 21.8518 18.9632 21.8528L18.9652 21.8528C19.1576 21.8527 19.3222 21.7142 19.3551 21.5246L20.56 14.5429C20.5816 14.4687 20.6226 14.4017 20.6787 14.3486 21.0994 14.0328 21.5761 13.7997 22.0835 13.6614 22.4954 13.5513 22.9192 13.492 23.3455 13.4849 23.7573 13.489 24.1667 13.5478 24.563 13.6598 25.0727 13.7979 25.5515 14.0316 25.9738 14.3486 26.0301 14.3909 26.07 14.4515 26.0866 14.52L27.3196 21.0785C27.3598 21.2934 27.5665 21.4351 27.7814 21.395 27.9421 21.3649 28.0678 21.2392 28.0978 21.0785L29.3249 14.5425C29.3396 14.4655 29.3818 14.3963 29.4437 14.3482 29.8667 14.0309 30.3463 13.797 30.8568 13.659 31.2525 13.5472 31.6612 13.4885 32.0724 13.4845 32.4966 13.4914 32.9184 13.5502 33.3284 13.6594 33.8434 13.7996 34.327 14.0365 34.7534 14.3577 34.7962 14.4035 34.8296 14.4573 34.8515 14.516L35.8502 20.1764C35.9046 20.4504 35.7487 20.7225 35.4849 20.8141 35.4109 20.8344 35.3333 20.8381 35.2577 20.8248 35.0423 20.7866 34.8369 20.9303 34.7987 21.1456 34.7605 21.3609 34.9042 21.5664 35.1195 21.6046 35.3091 21.638 35.5037 21.6292 35.6895 21.5789 36.3481 21.3809 36.7525 20.7194 36.6284 20.043Z" stroke="#5BB381" stroke-width="0.395833" transform="matrix(1.02632 0 0 1 663 475)"/></g></svg>