<svg width="96" height="96" xmlns="http://www.w3.org/2000/svg" xmlns:xlink="http://www.w3.org/1999/xlink" xml:space="preserve" overflow="hidden"><defs><clipPath id="clip0"><rect x="462" y="543" width="96" height="96"/></clipPath></defs><g clip-path="url(#clip0)" transform="translate(-462 -543)"><path d="M501.2 572.2C502 571.4 502.5 570.3 502.5 569.1 502.5 567.9 502 566.8 501.2 566L487.4 552.3C486.6 551.5 485.5 551 484.4 551 483.3 551 482.1 551.5 481.3 552.3L479.8 553.8 499.7 573.7 501.2 572.2Z" stroke="#5BB381"/><path d="M521.3 607.5C520.9 607.9 520.3 608.1 519.8 608.1 519.3 608.1 518.7 607.9 518.3 607.5L493.5 582.8C493.1 582.4 492.9 581.8 492.9 581.3 492.9 580.8 493.1 580.2 493.5 579.8L496.6 576.8 476.7 556.9C475.4 558.2 474.2 559.4 473.4 560.2 471.4 562.1 470.2 564.6 470.1 567.3 469.8 571.8 470.9 576.1 472.4 580.3 474 584 476.1 587.5 478.4 590.8 486.6 603.1 496.9 613.8 508.9 622.3 510.9 623.8 513 625.1 515.2 626.3 520.2 628.8 525.5 630.6 531.2 631 535 631.3 538.8 629.8 541.4 627L544.1 624.3 524.3 604.4 521.3 607.5Z" stroke="#5BB381"/><path d="M548.7 613.6 534.9 599.8C534.1 599 533 598.5 531.8 598.5 530.6 598.5 529.5 599 528.7 599.8L527.2 601.4 547.1 621.3 548.6 619.8C549.4 619 549.9 617.9 549.9 616.7 549.9 615.5 549.5 614.4 548.7 613.6Z" stroke="#5BB381"/></g></svg>